<svg width="23" height="21" viewBox="0 0 23 21" fill="none" xmlns="http://www.w3.org/2000/svg">
<g clip-path="url(#clip0_726_18656)">
<path d="M11.3085 3.35156C7.44574 3.35156 4.31445 6.48285 4.31445 10.3456C4.31445 14.2083 7.44574 17.3396 11.3085 17.3396C15.1712 17.3396 18.3025 14.2083 18.3025 10.3456C18.3025 6.48285 15.1712 3.35156 11.3085 3.35156ZM9.5964 13.2445H8.18011V8.68669H9.5964V13.2445ZM8.87951 8.12717C8.43219 8.12717 8.14296 7.81026 8.14296 7.4183C8.14296 7.01833 8.44093 6.71088 8.89773 6.71088C9.35452 6.71088 9.63429 7.01833 9.64303 7.4183C9.64303 7.81026 9.35452 8.12717 8.87951 8.12717ZM14.7691 13.2445H13.3528V10.7186C13.3528 10.1307 13.1473 9.73143 12.6352 9.73143C12.2439 9.73143 12.0115 10.0017 11.9088 10.2618C11.8709 10.3543 11.8614 10.4855 11.8614 10.6159V13.2437H10.4444V10.1401C10.4444 9.57115 10.4262 9.09541 10.4073 8.68597H11.6378L11.7026 9.31907H11.731C11.9175 9.02182 12.3743 8.58324 13.1386 8.58324C14.0704 8.58324 14.7691 9.2076 14.7691 10.5496V13.2445Z" fill="#F8F6F4"/>
</g>
<defs>
<clipPath id="clip0_726_18656">
<rect width="14.5709" height="14.5709" fill="white" transform="translate(4.02246 3.06055)"/>
</clipPath>
</defs>
</svg>
